<svg width="58" height="14" viewBox="0 0 58 14" fill="none" xmlns="http://www.w3.org/2000/svg">
<path fill-rule="evenodd" clip-rule="evenodd" d="M1.70891 4.06247L10.2904 12.5826H10.3392V0.3739H8.61598L8.64736 8.62814L0.0812945 0H1.17487e-05V12.1761H1.75572L1.70891 4.06247ZM14.2216 11.8835C14.7851 12.187 15.4625 12.3387 16.2536 12.3387C16.6546 12.3387 17.061 12.2737 17.4729 12.1436C17.8955 12.0027 18.2857 11.8185 18.6433 11.5909L17.8793 10.3554C17.6409 10.518 17.3862 10.6535 17.1152 10.7618C16.8551 10.8702 16.5788 10.9244 16.2861 10.9244C15.8743 10.9244 15.5004 10.8269 15.1644 10.6318C14.8771 10.4594 14.6406 10.232 14.4548 9.94957L19.765 8.11201C19.5591 7.1583 19.1527 6.41591 18.5458 5.88487C17.9497 5.35382 17.1965 5.0883 16.2861 5.0883C15.5817 5.0883 14.9369 5.25086 14.3516 5.57599C13.7772 5.90112 13.3166 6.34005 12.9698 6.89277C12.6338 7.43466 12.4659 8.04157 12.4659 8.71351C12.4659 9.41796 12.6176 10.0465 12.921 10.5993C13.2245 11.1411 13.658 11.5692 14.2216 11.8835ZM14.1236 8.94999C14.1131 8.84718 14.1078 8.74126 14.1078 8.63222C14.1078 8.18788 14.1945 7.80314 14.3679 7.47801C14.5521 7.14204 14.796 6.88194 15.0994 6.69769C15.4137 6.50262 15.7659 6.40508 16.1561 6.40508C16.6438 6.40508 17.0285 6.53513 17.3103 6.79523C17.5702 7.02516 17.7656 7.29197 17.8964 7.59566L14.1236 8.94999ZM24.7383 8.66903L27.3833 12.1761H25.3837L23.5964 9.8359L21.9536 12.1761H20.2629L22.7766 8.76247L20.1816 5.36466H22.2462L23.9751 7.65705L25.4325 5.36466H27.1069L24.7383 8.66903ZM31.0335 2.37345H29.3591V5.38091H28.1561V6.69769H29.3591V12.1761H31.0335V6.69769H32.8542V5.38091H31.0335V2.37345ZM57.8137 7.57013L52.107 13.2599C51.9376 13.4293 51.7401 13.5139 51.5143 13.5139C51.2885 13.5139 51.0909 13.4293 50.9216 13.2599C50.7523 13.0906 50.6676 12.8901 50.6676 12.6584C50.6676 12.4272 50.7466 12.2326 50.9047 12.0745L55.8832 7.09598L50.9047 2.11741C50.7353 1.94808 50.6507 1.75051 50.6507 1.52473C50.6507 1.29894 50.7353 1.10138 50.9047 0.932042C51.074 0.762703 51.2772 0.678033 51.5143 0.678033C51.7514 0.678033 51.9489 0.757058 52.107 0.915108L57.8137 6.62183C57.8814 6.68957 57.9293 6.76295 57.9573 6.84197C57.9857 6.921 58 7.00567 58 7.09598C58 7.18629 57.9857 7.27096 57.9573 7.34999C57.9293 7.42901 57.8814 7.50239 57.8137 7.57013Z" fill="#F44B16"/>
</svg>
