<svg width="12" height="12" viewBox="0 0 12 12" fill="none" xmlns="http://www.w3.org/2000/svg">
<path d="M5.5 8.5H3.5C2.80833 8.5 2.21883 8.25617 1.7315 7.7685C1.24383 7.28117 1 6.69167 1 6C1 5.30833 1.24383 4.71867 1.7315 4.231C2.21883 3.74367 2.80833 3.5 3.5 3.5H5.5V4.5H3.5C3.08333 4.5 2.72917 4.64583 2.4375 4.9375C2.14583 5.22917 2 5.58333 2 6C2 6.41667 2.14583 6.77083 2.4375 7.0625C2.72917 7.35417 3.08333 7.5 3.5 7.5H5.5V8.5ZM4 6.5V5.5H8V6.5H4ZM6.5 8.5V7.5H8.5C8.91667 7.5 9.27083 7.35417 9.5625 7.0625C9.85417 6.77083 10 6.41667 10 6C10 5.58333 9.85417 5.22917 9.5625 4.9375C9.27083 4.64583 8.91667 4.5 8.5 4.5H6.5V3.5H8.5C9.19167 3.5 9.78133 3.74367 10.269 4.231C10.7563 4.71867 11 5.30833 11 6C11 6.69167 10.7563 7.28117 10.269 7.7685C9.78133 8.25617 9.19167 8.5 8.5 8.5H6.5Z" fill="#0F0400" fill-opacity="0.9"/>
</svg>
