<svg width="24" height="21" viewBox="0 0 24 21" fill="none" xmlns="http://www.w3.org/2000/svg">
<path d="M16.185 16.6863L13.764 14.5992C12.8278 14.8876 11.8157 14.941 10.8456 14.7532C9.87554 14.5654 8.98729 14.1442 8.28423 13.5384C7.58117 12.9327 7.09221 12.1675 6.87424 11.3317C6.65628 10.4959 6.71827 9.62402 7.053 8.81741L3.963 6.15526C1.407 8.1131 0 10.3385 0 10.3385C0 10.3385 4.5 17.4462 12 17.4462C13.4406 17.4418 14.8649 17.1832 16.185 16.6863ZM7.815 3.99064C9.13508 3.49365 10.5594 3.23504 12 3.23077C19.5 3.23077 24 10.3385 24 10.3385C24 10.3385 22.5915 12.5625 20.0385 14.523L16.9455 11.8582C17.2802 11.0516 17.3422 10.1797 17.1243 9.34392C16.9063 8.50815 16.4173 7.74289 15.7143 7.13718C15.0112 6.53147 14.123 6.11021 13.1529 5.92242C12.1828 5.73464 11.1707 5.78804 10.2345 6.07643L7.815 3.99194V3.99064Z" fill="black"/>
<path d="M8.28749 9.88098C8.20498 10.3776 8.25786 10.884 8.44194 11.36C8.62602 11.836 8.93623 12.2685 9.34801 12.6232C9.75979 12.978 10.2618 13.2453 10.8143 13.4039C11.3668 13.5625 11.9545 13.608 12.531 13.5369L8.28599 9.88098H8.28749ZM15.7125 10.7959L11.469 7.13871C12.0455 7.06762 12.6332 7.11318 13.1857 7.27177C13.7382 7.43036 14.2402 7.69762 14.652 8.05238C15.0638 8.40714 15.374 8.83965 15.5581 9.31564C15.7421 9.79162 15.795 10.298 15.7125 10.7946V10.7959ZM20.469 18.5498L2.46899 3.04209L3.53099 2.12714L21.531 17.6348L20.469 18.5498Z" fill="black"/>
</svg>
