<svg width="24" height="24" viewBox="0 0 24 24" fill="none" xmlns="http://www.w3.org/2000/svg">
<path d="M9.12505 21.1L0.700049 12.7C0.600049 12.6 0.529382 12.4917 0.488049 12.375C0.446049 12.2583 0.425049 12.1333 0.425049 12C0.425049 11.8667 0.446049 11.7417 0.488049 11.625C0.529382 11.5083 0.600049 11.4 0.700049 11.3L9.12505 2.87499C9.35838 2.64166 9.65005 2.52499 10 2.52499C10.35 2.52499 10.65 2.64999 10.9 2.89999C11.15 3.14999 11.275 3.44166 11.275 3.77499C11.275 4.10833 11.15 4.39999 10.9 4.64999L3.55005 12L10.9 19.35C11.1334 19.5833 11.25 19.8707 11.25 20.212C11.25 20.554 11.125 20.85 10.875 21.1C10.625 21.35 10.3334 21.475 10 21.475C9.66672 21.475 9.37505 21.35 9.12505 21.1Z" fill="#0F0400" fill-opacity="0.9"/>
</svg>
