<svg width="31" height="32" viewBox="0 0 31 32" fill="none" xmlns="http://www.w3.org/2000/svg">
<path d="M25.2698 12.0533L19.0456 11.4933L16.6151 5.56C16.1778 4.48 14.6861 4.48 14.2488 5.56L11.8183 11.5067L5.60694 12.0533C4.47526 12.1467 4.0123 13.6133 4.87392 14.3867L9.59353 18.6267L8.17893 24.92C7.92173 26.0667 9.11771 26.9733 10.0951 26.36L15.4319 23.0267L20.7688 26.3733C21.7462 26.9867 22.9422 26.08 22.685 24.9333L21.2704 18.6267L25.99 14.3867C26.8516 13.6133 26.4015 12.1467 25.2698 12.0533ZM15.4319 20.5333L10.5966 23.56L11.8826 17.8533L7.61309 14.0133L13.2458 13.5067L15.4319 8.13333L17.631 13.52L23.2637 14.0267L18.9942 17.8667L20.2802 23.5733L15.4319 20.5333Z" fill="#F44B16"/>
</svg>
