<svg width="26" height="24" viewBox="0 0 26 24" fill="none" xmlns="http://www.w3.org/2000/svg">
<path d="M12.5016 14.9748C12.3627 14.9748 12.2283 14.9498 12.0985 14.8998C11.9679 14.8498 11.8592 14.7831 11.7724 14.6998L6.9801 10.0998C6.7891 9.91647 6.6936 9.68314 6.6936 9.3998C6.6936 9.11647 6.7891 8.88314 6.9801 8.6998C7.1711 8.51647 7.41418 8.4248 7.70936 8.4248C8.00454 8.4248 8.24762 8.51647 8.43862 8.6998L12.5016 12.5998L16.5647 8.6998C16.7557 8.51647 16.9987 8.4248 17.2939 8.4248C17.5891 8.4248 17.8322 8.51647 18.0232 8.6998C18.2142 8.88314 18.3097 9.11647 18.3097 9.3998C18.3097 9.68314 18.2142 9.91647 18.0232 10.0998L13.2309 14.6998C13.1267 14.7998 13.0139 14.8705 12.8923 14.9118C12.7708 14.9538 12.6405 14.9748 12.5016 14.9748Z" fill="#0F0400" fill-opacity="0.9"/>
</svg>
