<svg width="32" height="32" viewBox="0 0 32 32" fill="none" xmlns="http://www.w3.org/2000/svg">
<path d="M16.9334 20.3998L20.4001 16.9332C20.6667 16.6665 20.8001 16.3554 20.8001 15.9998C20.8001 15.6443 20.6667 15.3332 20.4001 15.0665L16.9001 11.5665C16.6556 11.3221 16.3503 11.2052 15.9841 11.2158C15.617 11.2274 15.3112 11.3554 15.0667 11.5998C14.8223 11.8443 14.7001 12.1554 14.7001 12.5332C14.7001 12.9109 14.8223 13.2221 15.0667 13.4665L16.2667 14.6665H11.9667C11.589 14.6665 11.2779 14.7941 11.0334 15.0492C10.789 15.3052 10.6667 15.6221 10.6667 15.9998C10.6667 16.3776 10.7947 16.6941 11.0507 16.9492C11.3059 17.2052 11.6223 17.3332 12.0001 17.3332H16.2667L15.0334 18.5665C14.789 18.8109 14.6721 19.1167 14.6827 19.4838C14.6943 19.8501 14.8223 20.1554 15.0667 20.3998C15.3112 20.6443 15.6223 20.7665 16.0001 20.7665C16.3779 20.7665 16.689 20.6443 16.9334 20.3998ZM16.0001 29.3332C14.1556 29.3332 12.4223 28.9829 10.8001 28.2825C9.17786 27.5829 7.76675 26.6332 6.56675 25.4332C5.36675 24.2332 4.41697 22.8221 3.71741 21.1998C3.01697 19.5776 2.66675 17.8443 2.66675 15.9998C2.66675 14.1554 3.01697 12.4221 3.71741 10.7998C4.41697 9.17762 5.36675 7.7665 6.56675 6.5665C7.76675 5.3665 9.17786 4.41628 10.8001 3.71584C12.4223 3.01628 14.1556 2.6665 16.0001 2.6665C17.8445 2.6665 19.5779 3.01628 21.2001 3.71584C22.8223 4.41628 24.2334 5.3665 25.4334 6.5665C26.6334 7.7665 27.5832 9.17762 28.2827 10.7998C28.9832 12.4221 29.3334 14.1554 29.3334 15.9998C29.3334 17.8443 28.9832 19.5776 28.2827 21.1998C27.5832 22.8221 26.6334 24.2332 25.4334 25.4332C24.2334 26.6332 22.8223 27.5829 21.2001 28.2825C19.5779 28.9829 17.8445 29.3332 16.0001 29.3332ZM16.0001 26.6665C18.9556 26.6665 21.4725 25.6278 23.5507 23.5505C25.6281 21.4723 26.6667 18.9554 26.6667 15.9998C26.6667 13.0443 25.6281 10.5274 23.5507 8.44917C21.4725 6.37184 18.9556 5.33317 16.0001 5.33317C13.0445 5.33317 10.5281 6.37184 8.45075 8.44917C6.37253 10.5274 5.33341 13.0443 5.33341 15.9998C5.33341 18.9554 6.37253 21.4723 8.45075 23.5505C10.5281 25.6278 13.0445 26.6665 16.0001 26.6665Z" fill="#FCF5F3"/>
</svg>
