<svg width="12" height="12" viewBox="0 0 12 12" fill="none" xmlns="http://www.w3.org/2000/svg">
<path d="M10.08 3.42012C8.63999 1.20012 5.69999 0.540122 3.41999 1.92012C1.19999 3.30012 0.47999 6.30012 1.91999 8.52012L2.03999 8.70012L1.55999 10.5001L3.35999 10.0201L3.53999 10.1401C4.31999 10.5601 5.15999 10.8001 5.99999 10.8001C6.89999 10.8001 7.79999 10.5601 8.57999 10.0801C10.8 8.64012 11.46 5.70012 10.08 3.42012ZM8.81999 8.04012C8.57999 8.40012 8.27999 8.64012 7.85999 8.70012C7.61999 8.70012 7.31999 8.82012 6.11999 8.34012C5.09999 7.86012 4.25999 7.08012 3.65999 6.18012C3.29999 5.76012 3.11999 5.22012 3.05999 4.68012C3.05999 4.20012 3.23999 3.78012 3.53999 3.48012C3.65999 3.36012 3.77999 3.30012 3.89999 3.30012H4.19999C4.31999 3.30012 4.43999 3.30012 4.49999 3.54012C4.61999 3.84012 4.91999 4.56012 4.91999 4.62012C4.97999 4.68012 4.97999 4.80012 4.91999 4.86012C4.97999 4.98012 4.91999 5.10012 4.85999 5.16012C4.79999 5.22012 4.73999 5.34012 4.67999 5.40012C4.55999 5.46012 4.49999 5.58012 4.55999 5.70012C4.79999 6.06012 5.09999 6.42012 5.39999 6.72012C5.75999 7.02012 6.11999 7.26012 6.53999 7.44012C6.65999 7.50012 6.77999 7.50012 6.83999 7.38012C6.89999 7.26012 7.19999 6.96012 7.31999 6.84012C7.43999 6.72012 7.49999 6.72012 7.61999 6.78012L8.57999 7.26012C8.69999 7.32012 8.81999 7.38012 8.87999 7.44012C8.93999 7.62012 8.93999 7.86012 8.81999 8.04012Z" fill="#0F0400" fill-opacity="0.9"/>
</svg>
