<svg width="21" height="20" viewBox="0 0 21 20" fill="none" xmlns="http://www.w3.org/2000/svg">
<path d="M3.78477 16.25C3.43433 16.25 3.1366 16.1283 2.89157 15.885C2.64599 15.6422 2.52319 15.3472 2.52319 15C2.52319 14.6528 2.64599 14.3578 2.89157 14.115C3.1366 13.8717 3.43433 13.75 3.78477 13.75C4.1352 13.75 4.43294 13.8717 4.67796 14.115C4.92355 14.3578 5.04634 14.6528 5.04634 15C5.04634 15.3472 4.92355 15.6422 4.67796 15.885C4.43294 16.1283 4.1352 16.25 3.78477 16.25ZM6.72844 15.8333V14.1667H17.6621V15.8333H6.72844ZM3.78477 11.25C3.43433 11.25 3.1366 11.1283 2.89157 10.885C2.64599 10.6422 2.52319 10.3472 2.52319 10C2.52319 9.65278 2.64599 9.35778 2.89157 9.115C3.1366 8.87167 3.43433 8.75 3.78477 8.75C4.1352 8.75 4.43294 8.87167 4.67796 9.115C4.92355 9.35778 5.04634 9.65278 5.04634 10C5.04634 10.3472 4.92355 10.6422 4.67796 10.885C4.43294 11.1283 4.1352 11.25 3.78477 11.25ZM6.72844 10.8333V9.16667H17.6621V10.8333H6.72844ZM3.78477 6.25C3.43433 6.25 3.1366 6.12833 2.89157 5.885C2.64599 5.64222 2.52319 5.34722 2.52319 5C2.52319 4.65278 2.64599 4.35778 2.89157 4.115C3.1366 3.87167 3.43433 3.75 3.78477 3.75C4.1352 3.75 4.43294 3.87167 4.67796 4.115C4.92355 4.35778 5.04634 4.65278 5.04634 5C5.04634 5.34722 4.92355 5.64222 4.67796 5.885C4.43294 6.12833 4.1352 6.25 3.78477 6.25ZM6.72844 5.83333V4.16667H17.6621V5.83333H6.72844Z" fill="#0F0400" fill-opacity="0.9"/>
</svg>
