<svg width="24" height="24" viewBox="0 0 24 24" fill="none" xmlns="http://www.w3.org/2000/svg">
<g clip-path="url(#clip0_0_14)">
<path fill-rule="evenodd" clip-rule="evenodd" d="M10.4641 3.28193C10.643 3.06723 10.865 2.89243 11.1157 2.7688C11.3663 2.64516 11.6401 2.57544 11.9194 2.56414C12.1987 2.55283 12.4772 2.60019 12.7371 2.70315C12.9969 2.80612 13.2323 2.9624 13.4281 3.16193L13.5361 3.28193L17.4681 7.99993H20.4531C20.6629 7.99948 20.8705 8.04337 21.0622 8.12872C21.2539 8.21408 21.4255 8.33896 21.5656 8.49521C21.7057 8.65145 21.8112 8.83553 21.8752 9.03538C21.9392 9.23524 21.9603 9.44636 21.9371 9.65493L21.8451 10.4209L21.7451 11.1609L21.6631 11.7149L21.5681 12.3099L21.4601 12.9349L21.3381 13.5829L21.2021 14.2439C21.1301 14.5769 21.0531 14.9109 20.9701 15.2419C20.7487 16.1203 20.4708 16.9834 20.1381 17.8259L19.9171 18.3659L19.7031 18.8539L19.5011 19.2879L19.4071 19.4819L19.1581 19.9719C18.8381 20.5819 18.2341 20.9419 17.5951 20.9939L17.4351 20.9999H6.55505C6.20543 21.0027 5.86164 20.9103 5.56045 20.7328C5.25925 20.5552 5.01197 20.2991 4.84505 19.9919L4.61305 19.5419L4.43305 19.1719C4.401 19.1038 4.36934 19.0354 4.33805 18.9669L4.13805 18.5179C3.6815 17.4574 3.31097 16.3619 3.03005 15.2419C2.97579 15.0245 2.92379 14.8065 2.87405 14.5879L2.73205 13.9399L2.60505 13.3059L2.49305 12.6929L2.39305 12.1059L2.30605 11.5519L2.23205 11.0389L2.14205 10.3559L2.07605 9.79993C2.07029 9.74894 2.06462 9.69794 2.05905 9.64693C2.03809 9.45042 2.05648 9.2517 2.11316 9.06238C2.16983 8.87306 2.26365 8.69692 2.38914 8.54425C2.51462 8.39158 2.66927 8.26543 2.84404 8.17318C3.01881 8.08092 3.2102 8.02441 3.40705 8.00693L3.54305 7.99993H6.53205L10.4641 3.28193ZM9.96105 12.7219C9.89341 12.486 9.74134 12.2832 9.53383 12.1521C9.32631 12.021 9.07783 11.9708 8.83571 12.0111C8.59359 12.0514 8.37473 12.1793 8.22082 12.3705C8.0669 12.5617 7.98868 12.8028 8.00105 13.0479L8.01405 13.1639L8.51405 16.1639L8.53905 16.2779C8.6067 16.5139 8.75876 16.7167 8.96628 16.8478C9.17379 16.9789 9.42227 17.029 9.6644 16.9888C9.90652 16.9485 10.1254 16.8206 10.2793 16.6294C10.4332 16.4382 10.5114 16.1971 10.4991 15.9519L10.4861 15.8359L9.98605 12.8359L9.96105 12.7219ZM15.1641 12.0139C14.9224 11.9736 14.6743 12.0234 14.4669 12.154C14.2595 12.2845 14.1073 12.4866 14.0391 12.7219L14.0141 12.8359L13.5141 15.8359C13.4723 16.0875 13.5283 16.3456 13.6705 16.5573C13.8127 16.769 14.0305 16.9183 14.2792 16.9748C14.5279 17.0312 14.7888 16.9905 15.0085 16.861C15.2282 16.7315 15.3901 16.5229 15.4611 16.2779L15.4861 16.1639L15.9861 13.1639C16.0294 12.9024 15.9672 12.6344 15.8131 12.4188C15.6589 12.2032 15.4255 12.0575 15.1641 12.0139ZM12.0001 4.56193L9.13505 7.99993H14.8651L12.0001 4.56193Z" fill="#585858"/>
</g>
<defs>
<clipPath id="clip0_0_14">
<rect width="24" height="24" fill="white"/>
</clipPath>
</defs>
</svg>
